<svg id="Layer_1" xmlns="http://www.w3.org/2000/svg" width="195.8" height="160.5" viewBox="0 0 195.8 160.5"><style>.st0{fill:#12bcca}.st1{fill:#003e7e}</style><path class="st0" d="M30.6 131.8c-4 .6-12.2 4.2-3.5 5.5s99.5-7.3 140.9-3c6.5.7 5.2-1.6-1.3-2.2-11.9-2.4-120.6-3.2-136.1-.3z"/><path class="st1" d="M75.4 110.4c-.9.3-8.5 6.8-16.2 2.1-3.7-2.2-4.7-5.5-6-10.2 27.6-36.7 30.3-59.8 28.2-71-.9-4.6-3.2-10.2-12.4-7.2-9.4 3.6-19.3 17.9-23 44-1.8 12.5.1 27.3 1.9 34.5-7.8 7.8-15.5 9.1-15.5 9.1s-3.8.7-3.1 4.6c0 .2.4 4.8 14.5-5.2 2-1.4 3.9-2.7 5.8-4.6 5.8 13.6 22.1 9.7 27.2 7.9.3-.1.8-.4.9-.6 1.5-1.7-.7-4.2-2.3-3.4zm-23-11.5c-7-24.7 13.7-76.9 23.5-69.7 3.8 2.8 4.5 19.4-5 40.5-2.8 6.1-14.6 24.5-18.5 29.2zm99.8-7c-7.7 11.5-18 14.8-18 14.8s-15.7 6.3-20.6.3c-4.8-6 1.6-16.2 2.7-18 1.1-1.8 5.7-6.4 5.7-3.3 0 2.8-1.1 8 2.1 6.6.7-.4 1.8-1.5 2.3-2.8 1.2-2.6 2.3-6.9-1.8-9.4-6.1-3.7-12.7 4.1-14.5 9.9-1.3 4.2-3.6 12 .6 16.9 10.2 11.3 29.8 6.4 43.4-4.4 10.5-8.9 5.7-22.1-1.9-10.6z"/><path class="st1" d="M105.2 110.5c-2.9-1.1-3.8-4-3.8-5.7.1-7.6 3.5-14.3 4.3-16.1.8-1.7-2.7-4.3-6.8-3.4-4.1.9-7.2 6.1-7.9 7.1-.7.9-1.8 1.3-1.1-1 0-.3.4-1.2.4-1.4.2-.6.3-1.2-.1-1.9-.6-1-5.2-1.7-7.9-.2-3.4 1.9-5.8 7.4-6.2 5.2 0-.1-.1-1-.4-1.3-.4-.6-2.2-1-3.9-.1-1.7.8-2.7 3.1-3.2 4-.1.2-.3.5-.4.8-.4.6-.6 1.2-1.1 2.1-.6.8-2.3 4.4-2.6 5.1-.5.9-.2 1.7.3 2.4.4.6 1.9 1.4 2.6.1.3-.4.5-1 .8-1.6v.1l.1-.2c.5-1 .9-2.1 1.4-3.1 0-.2.8-1.8 1.6-3.3.6-1 2.1-1.6 1.8.3-.2 1.1-.8 3.1-1.2 4.4-.2.8 1.3 2.5 2.4-.3.8-2.6 3-6.2 5.1-8.2.8-.7 2.7-1.3 2.3.5-.6 3.2-.4 7.9.4 12s4.2 4.7 6-1c1.1-3.3 3.8-9.8 6.2-13.2 1.8-2.6 5-3.4 3.7-.5-.1.3-1.4 3.3-1.8 5.3-.7 3-1.7 8.1-.3 11.2 1.6 3.7 8.5 6.1 9.8 4.7.6-1 .6-2.3-.5-2.8z"/></svg>