<?xml version="1.0" encoding="UTF-8"?>
<svg width="156px" height="37px" viewBox="0 0 156 37" version="1.1" xmlns="http://www.w3.org/2000/svg" xmlns:xlink="http://www.w3.org/1999/xlink">
    <!-- Generator: Sketch 41.2 (35397) - http://www.bohemiancoding.com/sketch -->
    <title>logo bile copy</title>
    <desc>Created with Sketch.</desc>
    <defs>
        <polygon id="path-1" points="155.006767 36.3254867 0.0196226415 36.3254867 0.0196226415 0.010806749 155.006767 0.010806749 155.006767 36.3254867"></polygon>
    </defs>
    <g id="Welcome" stroke="none" stroke-width="1" fill="none" fill-rule="evenodd">
        <g id="logo-bile-copy">
            <path d="M56.2999748,24.0339558 C55.5778616,24.8080088 54.6886289,25.1950354 53.6329308,25.1950354 C52.5432201,25.1950354 51.6392704,24.8142301 50.9210818,24.0529469 C50.2028931,23.2916637 49.8441258,22.2946283 49.8441258,21.0608584 C49.8441258,19.8529558 50.2028931,18.8745841 50.9210818,18.1260708 C51.6392704,17.3775575 52.5432201,17.0033009 53.6329308,17.0033009 C54.7138113,17.0033009 55.6092579,17.3837788 56.3189434,18.1450619 C57.0283019,18.9063451 57.3834717,19.8827522 57.3834717,21.0736283 C57.3834717,22.2730177 57.0224151,23.2599027 56.2999748,24.0339558 Z M54.3628931,13.8294867 C53.5331824,13.8294867 52.7541635,13.9850177 52.0261635,14.2957522 C51.2978365,14.6061593 50.6205283,15.0724248 49.9939119,15.6935664 L49.9939119,8.83284956 L46.5239748,8.83284956 L46.5239748,28.0256991 L49.9939119,28.0256991 L49.9939119,26.5591239 C50.6712201,27.2005664 51.3527799,27.6622478 52.0389182,27.944823 C52.7244025,28.2273982 53.4654843,28.3685221 54.2611824,28.3685221 C56.0478239,28.3685221 57.593434,27.676 58.8970314,26.2909558 C60.200956,24.9055841 60.8534088,23.1836106 60.8534088,21.1243805 C60.8534088,18.9895133 60.2225409,17.239708 58.960805,15.8756195 C57.6990692,14.5118584 56.1665409,13.8294867 54.3628931,13.8294867 L54.3628931,13.8294867 Z" id="Fill-1" fill="#FFFFFF"></path>
            <path d="M71.9254843,24.0529469 C71.2072956,24.8142301 70.303673,25.1950354 69.2139623,25.1950354 C68.1579371,25.1950354 67.2690314,24.8080088 66.5465912,24.0339558 C65.824478,23.2599027 65.4634214,22.2730177 65.4634214,21.0736283 C65.4634214,19.8827522 65.8182642,18.9063451 66.5276226,18.1450619 C67.2373082,17.3837788 68.1285031,17.0033009 69.2012075,17.0033009 C70.2994214,17.0033009 71.2072956,17.3775575 71.9254843,18.1260708 C72.643673,18.8745841 73.0027673,19.8529558 73.0027673,21.0608584 C73.0027673,22.2946283 72.643673,23.2916637 71.9254843,24.0529469 Z M72.8529811,15.6893097 C72.2338868,15.0691504 71.5598491,14.6045221 70.8308679,14.2944425 C70.1018868,13.9846903 69.3222138,13.8294867 68.491522,13.8294867 C66.6855849,13.8294867 65.1510943,14.5118584 63.8880503,15.8756195 C62.6250063,17.239708 61.9934843,18.9895133 61.9934843,21.1243805 C61.9934843,23.1836106 62.6462642,24.9055841 63.9518239,26.2909558 C65.2573836,27.676 66.8043019,28.3685221 68.5932327,28.3685221 C69.3899119,28.3685221 70.1293585,28.2273982 70.8118994,27.944823 C71.4941132,27.6622478 72.1746918,27.2005664 72.8529811,26.5591239 L72.8529811,28.0256991 L76.3229182,28.0256991 L76.3229182,14.1726372 L72.8529811,14.1726372 L72.8529811,15.6893097 L72.8529811,15.6893097 Z" id="Fill-2" fill="#FFFFFF"></path>
            <path d="M84.5019623,13.8294867 C83.868478,13.8294867 83.2860126,14.0079381 82.7539119,14.363531 C82.2218113,14.7194513 81.7950189,15.2407257 81.4745157,15.9270265 L81.4745157,14.1726372 L78.4758491,14.1726372 L78.4758491,28.0256991 L81.9454591,28.0256991 L81.9454591,22.4308407 L81.9330314,21.7569823 C81.9330314,19.824469 82.1161761,18.5278319 82.4834465,17.8664159 C82.8503899,17.2053274 83.3000755,16.8746195 83.8321761,16.8746195 C84.0934843,16.8746195 84.4267421,16.9764513 84.8322767,17.1797876 L85.9082516,14.1863894 C85.4180126,13.9483451 84.9496855,13.8294867 84.5019623,13.8294867" id="Fill-3" fill="#FFFFFF"></path>
            <path d="M93.1414843,15.5023451 C95.2541887,15.5023451 96.9214591,16.3101239 98.1439497,17.925354 L99.5554717,17.0468496 C99.1394717,16.3546549 98.6345157,15.7845929 98.0402767,15.3369912 C97.4460377,14.8893894 96.7226164,14.5265929 95.8696855,14.2476195 C95.0167547,13.9689735 94.1317736,13.8294867 93.2150692,13.8294867 C91.7551447,13.8294867 90.435522,14.151354 89.2555472,14.7954159 C88.0758994,15.4394779 87.1484025,16.3356637 86.4737107,17.4833186 C85.7990189,18.6313009 85.4618365,19.8745664 85.4618365,21.213115 C85.4618365,23.2045664 86.1829686,24.8951062 87.6262138,26.2844071 C89.068805,27.6740354 90.8852075,28.3685221 93.0750943,28.3685221 C94.5010063,28.3685221 95.7718994,28.0934779 96.8881006,27.5440442 C98.0043019,26.9946106 98.8935346,26.220885 99.5554717,25.2238496 L98.1439497,24.2942655 C96.8540881,25.909823 95.1907421,26.7176018 93.154239,26.7176018 C92.0422893,26.7176018 91.0392453,26.4720265 90.1437987,25.981531 C89.2486792,25.4910354 88.5445535,24.8017876 88.0310943,23.9134602 C87.5176352,23.0257876 87.2609057,22.0781947 87.2609057,21.0716637 C87.2609057,19.523885 87.8188428,18.2089115 88.934717,17.1264159 C90.0505912,16.0435929 91.4526289,15.5023451 93.1414843,15.5023451" id="Fill-4" fill="#FFFFFF"></path>
            <path d="M112.652604,23.9910619 C112.183296,24.8279823 111.512855,25.4916903 110.641937,25.9818584 C109.771346,26.472354 108.849736,26.7176018 107.877434,26.7176018 C106.913635,26.7176018 106.010994,26.4700619 105.169509,25.9756372 C104.328352,25.4812124 103.658239,24.79 103.159497,23.9023274 C102.660428,23.0146549 102.41122,22.0844159 102.41122,21.1119381 C102.41122,20.1316018 102.658465,19.2013628 103.153283,18.322531 C103.647774,17.4433717 104.313308,16.7606726 105.150541,16.2744336 C105.987447,15.7881947 106.900881,15.5452389 107.890189,15.5452389 C109.428931,15.5452389 110.724352,16.0822301 111.777434,17.155885 C112.829862,18.2292124 113.356403,19.5651416 113.356403,21.1630177 C113.356403,22.2114602 113.121585,23.1541416 112.652604,23.9910619 Z M113.249132,16.7190885 C112.554818,15.7515221 111.748327,15.0278938 110.82966,14.548531 C109.910994,14.0694956 108.884403,13.8294867 107.749887,13.8294867 C105.785333,13.8294867 104.104327,14.5370708 102.707522,15.9522389 C101.31039,17.3670796 100.612151,19.0697345 100.612151,21.0608584 C100.612151,23.0942212 101.304176,24.8207788 102.688553,26.2398761 C104.072931,27.6593009 105.743145,28.3685221 107.698868,28.3685221 C108.799371,28.3685221 109.813535,28.1416106 110.740377,27.6877876 C111.667547,27.234292 112.503799,26.5529027 113.249132,25.6446018 L113.249132,28.0256991 L115.026943,28.0256991 L115.026943,14.1726372 L113.249132,14.1726372 L113.249132,16.7190885 L113.249132,16.7190885 Z" id="Fill-5" fill="#FFFFFF"></path>
            <path d="M136.438189,14.5547522 C135.70561,14.0714602 134.861182,13.8294867 133.903925,13.8294867 C132.878642,13.8294867 131.921711,14.1120619 131.032478,14.6762301 C130.142918,15.2407257 129.401836,16.0665133 128.809233,17.1526106 C128.528629,16.3379558 128.197006,15.7119027 127.815019,15.2747788 C127.432704,14.8376549 126.939849,14.4876283 126.336453,14.2243717 C125.73273,13.961115 125.095648,13.8294867 124.424553,13.8294867 C123.43034,13.8294867 122.482893,14.097 121.582214,14.6310442 C120.927799,15.0383717 120.29039,15.6837434 119.670314,16.5665044 L119.670314,14.1726372 L117.892503,14.1726372 L117.892503,28.0256991 L119.670314,28.0256991 L119.670314,22.1646372 C119.670314,20.4354602 119.842013,19.1515929 120.186063,18.312708 C120.530113,17.473823 121.060906,16.8061858 121.77844,16.3104513 C122.495975,15.8143894 123.266491,15.5665221 124.090314,15.5665221 C124.803597,15.5665221 125.419094,15.7469381 125.937132,16.107115 C126.45517,16.467292 126.817862,16.946 127.026189,17.5435664 C127.234189,18.1411327 127.338189,19.274708 127.338189,20.944292 L127.338189,28.0256991 L129.116,28.0256991 L129.116,22.6096195 C129.116,20.6266814 129.281157,19.2111858 129.611145,18.3637876 C129.941132,17.5160619 130.463748,16.8379469 131.178994,16.3294425 C131.894239,15.8209381 132.683396,15.5665221 133.546792,15.5665221 C134.257786,15.5665221 134.869031,15.7361327 135.381182,16.0750265 C135.893333,16.4142478 136.255044,16.8611947 136.466314,17.4165221 C136.677912,17.9715221 136.784201,18.990823 136.784201,20.4737699 L136.784201,28.0256991 L138.604528,28.0256991 L138.604528,20.4695133 C138.604528,18.7396814 138.426616,17.4427168 138.070792,16.5773097 C137.714969,15.7122301 137.170767,15.0380442 136.438189,14.5547522" id="Fill-6" fill="#FFFFFF"></path>
            <path d="M153.211623,23.9023274 C152.713535,24.79 152.04473,25.4812124 151.205535,25.9756372 C150.365686,26.4700619 149.469258,26.7176018 148.515597,26.7176018 C147.545258,26.7176018 146.623321,26.472354 145.749786,25.9818584 C144.876252,25.4916903 144.205484,24.8279823 143.737484,23.9910619 C143.26883,23.1541416 143.034994,22.2114602 143.034994,21.1630177 C143.034994,19.5651416 143.559899,18.2292124 144.610692,17.155885 C145.661484,16.0822301 146.954616,15.5452389 148.490415,15.5452389 C149.477761,15.5452389 150.388906,15.7881947 151.224176,16.2744336 C152.059447,16.7606726 152.724327,17.4433717 153.217836,18.322531 C153.711673,19.2013628 153.958591,20.1316018 153.958591,21.1119381 C153.958591,22.0844159 153.709384,23.0146549 153.211623,23.9023274 Z M153.66327,15.9522389 C152.267119,14.5370708 150.587748,13.8294867 148.62483,13.8294867 C147.499472,13.8294867 146.479748,14.0694956 145.565987,14.548531 C144.652226,15.0278938 143.844101,15.7515221 143.141937,16.7190885 L143.141937,14.1726372 L141.364126,14.1726372 L141.364126,33.0865133 L143.141937,33.0865133 L143.141937,25.631177 C143.886289,26.5394779 144.719925,27.2228319 145.642189,27.6812389 C146.56478,28.139646 147.575673,28.3685221 148.675849,28.3685221 C150.630264,28.3685221 152.298843,27.6593009 153.682566,26.2398761 C155.065962,24.8207788 155.75766,23.0942212 155.75766,21.0608584 C155.75766,19.0697345 155.059421,17.3670796 153.66327,15.9522389 L153.66327,15.9522389 Z" id="Fill-7" fill="#FFFFFF"></path>
            <path d="M101.033057,3.071 L102.297082,3.071 C102.779799,3.071 103.127447,3.11323894 103.339698,3.19738938 C103.551623,3.28153982 103.722667,3.42331858 103.852503,3.6220708 C103.981686,3.82147788 104.046767,4.04085841 104.046767,4.28053982 C104.046767,4.52644248 103.981686,4.74909735 103.852503,4.94817699 C103.722667,5.14725664 103.544755,5.29132743 103.317786,5.38038938 C103.090818,5.46945133 102.732704,5.5139823 102.243447,5.5139823 L101.033057,5.49957522 L101.033057,3.071 Z M101.033057,6.20028319 L101.543572,6.20028319 C102.431497,6.20028319 103.037509,6.16131858 103.361283,6.08338938 C103.805409,5.97631858 104.154038,5.7680708 104.406516,5.45799115 C104.659321,5.14823894 104.78556,4.75499115 104.78556,4.27792035 C104.78556,3.80445133 104.65605,3.41087611 104.397031,3.09784956 C104.137358,2.78482301 103.803774,2.57788496 103.395623,2.47736283 C103.110113,2.4059823 102.559371,2.37029204 101.742742,2.37029204 L100.318465,2.37029204 L100.318465,9.52897345 L101.033057,9.52897345 L101.033057,6.20028319 L101.033057,6.20028319 Z" id="Fill-8" fill="#FFFFFF"></path>
            <path d="M109.201962,3.071 L110.463044,3.071 C110.952956,3.071 111.303874,3.11323894 111.514818,3.19771681 C111.725761,3.28186726 111.895824,3.42233628 112.02566,3.61846903 C112.155497,3.8149292 112.220579,4.033 112.220579,4.27300885 C112.220579,4.51956637 112.156478,4.74287611 112.028277,4.94228319 C111.900075,5.1420177 111.721509,5.2870708 111.492579,5.37776991 C111.263975,5.46879646 110.910767,5.5139823 110.43361,5.5139823 L109.201962,5.50448673 L109.201962,3.071 Z M109.201962,6.20519469 L109.605862,6.20519469 L112.177736,9.52897345 L113.061409,9.52897345 L110.490189,6.20519469 C111.08966,6.20192035 111.559623,6.12464602 111.899748,5.97369912 C112.240201,5.82275221 112.501509,5.59911504 112.684981,5.30376991 C112.867799,5.00809735 112.959371,4.66527434 112.959371,4.27530088 C112.959371,3.80772566 112.826591,3.41382301 112.560704,3.09392035 C112.295145,2.7740177 111.950113,2.56544248 111.525283,2.46786726 C111.243371,2.40270796 110.705711,2.37029204 109.911975,2.37029204 L108.487371,2.37029204 L108.487371,9.52897345 L109.201962,9.52897345 L109.201962,6.20519469 L109.201962,6.20519469 Z" id="Fill-9" fill="#FFFFFF"></path>
            <path d="M119.904151,3.89122124 L121.123371,6.48253097 L118.678717,6.48253097 L119.904151,3.89122124 Z M121.432428,7.17341593 L122.557132,9.52897345 L123.328629,9.52897345 L119.994415,2.37029204 L119.819119,2.37029204 L116.440755,9.52897345 L117.238088,9.52897345 L118.352,7.17341593 L121.432428,7.17341593 L121.432428,7.17341593 Z" id="Fill-10" fill="#FFFFFF"></path>
            <polyline id="Fill-11" fill="#FFFFFF" points="129.006767 1.82511504 130.45034 0.574318584 129.547698 0.574318584 128.656503 1.31431858 127.801283 0.574318584 126.921535 0.574318584 128.331094 1.82511504 129.006767 1.82511504"></polyline>
            <polyline id="Fill-12" fill="#FFFFFF" points="130.508881 9.52897345 130.508881 8.82826549 127.672428 8.82826549 130.659321 2.37029204 126.887522 2.37029204 126.887522 3.06117699 129.579748 3.06117699 126.566692 9.52897345 130.508881 9.52897345"></polyline>
            <path d="M136.464352,8.84529204 C136.253409,8.9569469 136.028403,9.01326549 135.788352,9.01326549 C135.228126,9.01326549 134.733962,8.6190354 134.305862,7.83057522 L133.698541,8.19533628 C133.996478,8.74051327 134.322214,9.12917699 134.675421,9.361 C135.028629,9.59315044 135.422063,9.70906195 135.856704,9.70906195 C136.420528,9.70906195 136.899321,9.51751327 137.293082,9.13474336 C137.686843,8.75197345 137.883723,8.30076991 137.883723,7.78178761 C137.883723,7.42161062 137.768604,7.06339823 137.538692,6.70649558 C137.308453,6.34959292 136.88395,5.94226549 136.264855,5.48484071 C135.742893,5.09879646 135.435145,4.86042478 135.341283,4.76939823 C135.169585,4.59749558 135.051195,4.43836283 134.98644,4.29265487 C134.921686,4.14661947 134.889308,3.99567257 134.889308,3.83981416 C134.889308,3.58376106 134.980881,3.3679823 135.164025,3.19280531 C135.346843,3.01762832 135.582642,2.92987611 135.871094,2.92987611 C136.094792,2.92987611 136.301157,2.98652212 136.490843,3.10014159 C136.680528,3.21376106 136.909786,3.44918584 137.178943,3.80576106 L137.762063,3.3630708 C137.434692,2.91546903 137.124327,2.60800885 136.831296,2.44069027 C136.537937,2.27402655 136.222994,2.19020354 135.885811,2.19020354 C135.568252,2.19020354 135.273912,2.26387611 135.003774,2.41187611 C134.732981,2.55922124 134.523019,2.76124779 134.374214,3.01762832 C134.225082,3.27368142 134.150516,3.55789381 134.150516,3.86928319 C134.150516,4.26187611 134.277082,4.62663717 134.52956,4.96422124 C134.675421,5.16526549 135.046616,5.49138938 135.642818,5.94226549 C136.235748,6.38986726 136.643899,6.7729646 136.867597,7.09090265 C137.029811,7.3210885 137.110591,7.55651327 137.110591,7.79652212 C137.110591,8.00738938 137.055648,8.20679646 136.945434,8.3950708 C136.83522,8.58334513 136.674642,8.73330973 136.464352,8.84529204" id="Fill-13" fill="#FFFFFF"></path>
            <polyline id="Fill-14" fill="#FFFFFF" points="142.541484 6.19438938 145.67522 9.52897345 146.627245 9.52897345 142.925434 5.5820885 146.359396 2.37029204 145.399522 2.37029204 142.541484 5.05655752 142.541484 2.37029204 141.812503 2.37029204 141.812503 9.52897345 142.541484 9.52897345 142.541484 6.19438938"></polyline>
            <polyline id="Fill-15" fill="#FFFFFF" points="153.747975 0.30680531 152.703069 0.30680531 151.643119 1.80579646 152.314214 1.80579646 153.747975 0.30680531"></polyline>
            <g id="Group-19" transform="translate(0.000000, 0.654867)">
                <mask id="mask-2" fill="white">
                    <use xlink:href="#path-1"></use>
                </mask>
                <g id="Clip-17"></g>
                <polyline id="Fill-16" fill="#FFFFFF" mask="url(#mask-2)" points="152.037208 8.87410619 152.74166 8.87410619 152.74166 5.45275221 155.006767 1.71542478 154.180654 1.71542478 152.37995 4.66756637 150.550465 1.71542478 149.728277 1.71542478 152.037208 5.45275221 152.037208 8.87410619"></polyline>
                <path d="M36.1743396,8.44582301 C38.2209811,11.5017611 39.3028428,15.0678407 39.3028428,18.7580177 C39.3028428,22.5310354 38.1742138,26.1648938 36.0389434,29.267 C35.7809057,29.6415841 35.2684277,29.735885 34.8942893,29.4778673 C34.5201509,29.2195221 34.4259623,28.7067611 34.683673,28.3318496 C36.6289308,25.5060973 37.6571572,22.1954159 37.6571572,18.7580177 C37.6571572,15.3956018 36.6717736,12.1471327 34.8072956,9.36329204 C34.5544906,8.98576106 34.6552201,8.47365487 35.0326289,8.22022124 C35.4100377,7.96711504 35.9212075,8.0679646 36.1743396,8.44582301 Z M31.8642264,27.3901504 C31.4900881,27.1318053 31.3955723,26.6190442 31.6536101,26.2441327 C33.1743648,24.0349381 33.9779119,21.4465752 33.9779119,18.7580177 C33.9779119,16.1290531 33.2073962,13.588823 31.749761,11.4123717 C31.4966289,11.0345133 31.5973585,10.5227345 31.9750943,10.2693009 C32.3525031,10.0158673 32.863673,10.1167168 33.116805,10.4949027 C34.7569308,12.9437788 35.6235975,15.8009646 35.6235975,18.7580177 C35.6235975,21.7821947 34.7193208,24.6940619 33.0088805,27.1792832 C32.7508428,27.5538673 32.2383648,27.6484956 31.8642264,27.3901504 Z M28.6863396,25.2015841 C28.3122013,24.9432389 28.2180126,24.4301504 28.4760503,24.0555664 C29.5536604,22.4907611 30.1233711,20.6587699 30.1233711,18.7580177 C30.1233711,16.8981947 29.5775346,15.1005841 28.5457107,13.5590265 C28.2925786,13.1811681 28.3933082,12.6693894 28.770717,12.4159558 C29.1484528,12.1628496 29.6596226,12.2636991 29.9124277,12.6415575 C31.1270692,14.4552124 31.7690566,16.5704336 31.7690566,18.7580177 C31.7690566,20.9947168 31.0989434,23.149885 29.8309937,24.9907168 C29.572956,25.3656283 29.060478,25.4599292 28.6863396,25.2015841 Z M24.2267673,0.347079646 C25.2549937,0.73279646 26.2384151,1.29532743 27.1632956,1.88339823 C28.0891572,2.47245133 29.1455094,3.18560177 28.7896855,4.05133628 C27.6185409,6.10238053 24.7673711,5.15871681 23.1462138,4.40758407 C21.3298113,3.56607965 19.2854591,2.26780531 17.196956,2.62569027 C15.0937358,2.98619469 13.928478,5.48025664 13.2940126,7.30635398 C15.5846289,6.65083186 18.9764025,6.23368142 20.3198994,8.74476991 C21.3219623,10.6173628 21.2320252,14.2073451 18.9764025,15.1493717 C16.4882516,16.1866814 14.6597484,13.9198584 12.8243774,12.8579912 C11.2234969,11.9326637 7.96483019,10.0869204 6.68150943,12.4428053 C5.68173585,14.2770885 6.80349686,16.3389381 5.85833962,18.1525929 C4.68196226,20.4069735 2.00641509,19.8889735 0,19.6018142 C0.469962264,20.0723363 0.916704403,20.5674159 1.44259119,20.976708 C2.40410063,21.7226018 3.61056604,22.3227876 4.85889308,22.1020973 C5.92963522,21.8879558 6.65469182,21.3486726 7.43142138,20.6122743 C8.22548428,19.8598319 8.55220126,18.8808053 9.68475472,18.5461681 C10.5651572,18.2865133 11.5397484,18.4302566 12.353761,18.833 C14.114566,19.7059381 15.6869937,21.625354 15.5463648,23.6741062 C15.4731069,24.7448142 14.6695597,25.5853363 13.8405031,26.1851947 C13.3610566,26.5322743 12.4172075,26.8577434 11.1966792,27.01 C12.7730314,29.1982389 15.1372327,29.1284956 17.9086038,28.8933982 C20.1105912,28.7061062 22.5408553,27.345292 24.7726038,27.8776991 C27.2565031,28.470354 26.460478,31.0217168 24.9531321,32.2446814 C23.1933082,33.6729469 20.8248553,33.9060796 18.6254843,33.7233717 C20.1988931,34.5219823 21.8350943,35.2138496 23.5350692,35.6938673 C47.0864906,42.3545221 46.473283,-4.37746018 24.2267673,0.347079646 L24.2267673,0.347079646 Z" id="Fill-18" fill="#FFFFFF" mask="url(#mask-2)"></path>
            </g>
        </g>
    </g>
</svg>