<?xml version="1.0" encoding="UTF-8"?>
<svg width="150px" height="35px" viewBox="0 0 150 35" version="1.1" xmlns="http://www.w3.org/2000/svg" xmlns:xlink="http://www.w3.org/1999/xlink">
    <!-- Generator: Sketch 41.2 (35397) - http://www.bohemiancoding.com/sketch -->
    <title>logo cerne copy</title>
    <desc>Created with Sketch.</desc>
    <defs>
        <polygon id="path-1" points="149.044969 34.2035969 0.0188679245 34.2035969 0.0188679245 0.0101754916 149.044969 0.0101754916 149.044969 34.2035969"></polygon>
    </defs>
    <g id="Welcome" stroke="none" stroke-width="1" fill="none" fill-rule="evenodd">
        <g id="logo-cerne-copy">
            <path d="M54.1345912,22.6300542 C53.4402516,23.3588924 52.5852201,23.7233114 51.5701258,23.7233114 C50.522327,23.7233114 49.6531447,23.3647502 48.9625786,22.6479361 C48.2720126,21.9311219 47.927044,20.9923266 47.927044,19.8306252 C47.927044,18.69328 48.2720126,17.7720582 48.9625786,17.0672681 C49.6531447,16.3624779 50.522327,16.0100828 51.5701258,16.0100828 C52.609434,16.0100828 53.4704403,16.3683357 54.1528302,17.0851499 C54.8349057,17.801964 55.1764151,18.721336 55.1764151,19.8426492 C55.1764151,20.9719783 54.8292453,21.9012161 54.1345912,22.6300542 Z M52.2720126,13.0216614 C51.4742138,13.0216614 50.7251572,13.1681073 50.0251572,13.4606908 C49.3248428,13.752966 48.6735849,14.1919954 48.0710692,14.7768541 L48.0710692,8.31689409 L44.7345912,8.31689409 L44.7345912,26.3886269 L48.0710692,26.3886269 L48.0710692,25.0077191 C48.722327,25.6116928 49.377673,26.0464059 50.0374214,26.312475 C50.6965409,26.5785441 51.4091195,26.7114245 52.1742138,26.7114245 C53.8921384,26.7114245 55.3783019,26.0593548 56.631761,24.7552155 C57.8855346,23.4507679 58.5128931,21.8293805 58.5128931,19.8904368 C58.5128931,17.8802741 57.9062893,16.2326806 56.6930818,14.9482729 C55.4798742,13.6641736 54.0062893,13.0216614 52.2720126,13.0216614 L52.2720126,13.0216614 Z" id="Fill-1" fill="#000105"></path>
            <path d="M69.1591195,22.6479361 C68.4685535,23.3647502 67.5996855,23.7233114 66.5518868,23.7233114 C65.536478,23.7233114 64.681761,23.3588924 63.9871069,22.6300542 C63.2927673,21.9012161 62.9455975,20.9719783 62.9455975,19.8426492 C62.9455975,18.721336 63.2867925,17.801964 63.9688679,17.0851499 C64.6512579,16.3683357 65.5081761,16.0100828 66.5396226,16.0100828 C67.5955975,16.0100828 68.4685535,16.3624779 69.1591195,17.0672681 C69.8496855,17.7720582 70.1949686,18.69328 70.1949686,19.8306252 C70.1949686,20.9923266 69.8496855,21.9311219 69.1591195,22.6479361 Z M70.0509434,14.7728461 C69.4556604,14.1889124 68.8075472,13.7514245 68.1066038,13.4594576 C67.4056604,13.167799 66.6559748,13.0216614 65.8572327,13.0216614 C64.1207547,13.0216614 62.645283,13.6641736 61.4308176,14.9482729 C60.2163522,16.2326806 59.6091195,17.8802741 59.6091195,19.8904368 C59.6091195,21.8293805 60.2367925,23.4507679 61.4921384,24.7552155 C62.7474843,26.0593548 64.2349057,26.7114245 65.9550314,26.7114245 C66.7210692,26.7114245 67.4320755,26.5785441 68.0883648,26.312475 C68.7443396,26.0464059 69.3987421,25.6116928 70.0509434,25.0077191 L70.0509434,26.3886269 L73.3874214,26.3886269 L73.3874214,13.3447673 L70.0509434,13.3447673 L70.0509434,14.7728461 L70.0509434,14.7728461 Z" id="Fill-2" fill="#000105"></path>
            <path d="M81.2518868,13.0216614 C80.6427673,13.0216614 80.0827044,13.1896888 79.5710692,13.5245104 C79.059434,13.8596403 78.6490566,14.3504653 78.3408805,14.9966771 L78.3408805,13.3447673 L75.4575472,13.3447673 L75.4575472,26.3886269 L78.7937107,26.3886269 L78.7937107,21.1205824 L78.781761,20.4860862 C78.781761,18.6664573 78.9578616,17.4455609 79.3110063,16.8227805 C79.6638365,16.2003083 80.0962264,15.8889181 80.6078616,15.8889181 C80.8591195,15.8889181 81.1795597,15.9848016 81.5694969,16.1762603 L82.6040881,13.3577162 C82.1327044,13.1335769 81.6823899,13.0216614 81.2518868,13.0216614" id="Fill-3" fill="#000105"></path>
            <path d="M89.5591195,14.5968027 C91.590566,14.5968027 93.1937107,15.3573965 94.3691824,16.8782758 L95.7264151,16.0510876 C95.3264151,15.3993263 94.8408805,14.8625635 94.2694969,14.4411076 C93.6981132,14.0196517 93.0025157,13.6780474 92.1823899,13.4153697 C91.3622642,13.1530003 90.5113208,13.0216614 89.6298742,13.0216614 C88.2261006,13.0216614 86.9572327,13.3247274 85.8226415,13.9311676 C84.6883648,14.5376078 83.7965409,15.3814445 83.1477987,16.4620611 C82.4990566,17.542986 82.1748428,18.7136283 82.1748428,19.973988 C82.1748428,21.8491122 82.868239,23.4409021 84.2559748,24.7490494 C85.6430818,26.057505 87.3896226,26.7114245 89.495283,26.7114245 C90.8663522,26.7114245 92.0883648,26.4524465 93.1616352,25.9351071 C94.2349057,25.4177676 95.0899371,24.6892378 95.7264151,23.7504425 L94.3691824,22.8751584 C93.1289308,24.396346 91.5295597,25.1569398 89.5713836,25.1569398 C88.5022013,25.1569398 87.5377358,24.9257094 86.6767296,24.4638653 C85.8160377,24.0020211 85.1389937,23.3530345 84.645283,22.5165972 C84.1515723,21.6807765 83.904717,20.7885355 83.904717,19.8407993 C83.904717,18.3834313 84.441195,17.1452698 85.5141509,16.1260063 C86.5871069,15.1064345 87.9352201,14.5968027 89.5591195,14.5968027" id="Fill-4" fill="#000105"></path>
            <path d="M108.319811,22.589666 C107.868553,23.3776991 107.223899,24.0026377 106.386478,24.4641736 C105.549371,24.9260177 104.663208,25.1569398 103.728302,25.1569398 C102.801572,25.1569398 101.933648,24.9238595 101.124528,24.4583157 C100.315723,23.9927719 99.6713836,23.3419355 99.1918239,22.5061148 C98.7119497,21.670294 98.472327,20.7943934 98.472327,19.8787211 C98.472327,18.9556494 98.7100629,18.0797488 99.1858491,17.2522524 C99.6613208,16.4244476 100.301258,15.7816272 101.106289,15.323791 C101.911006,14.8659549 102.789308,14.637191 103.740566,14.637191 C105.220126,14.637191 106.465723,15.1428147 107.478302,16.1537539 C108.490252,17.1643848 108.996541,18.422278 108.996541,19.926817 C108.996541,20.9140166 108.770755,21.8016329 108.319811,22.589666 Z M108.893396,15.7424722 C108.225786,14.8314245 107.450314,14.1500657 106.566981,13.698704 C105.683648,13.2476506 104.696541,13.0216614 103.60566,13.0216614 C101.716667,13.0216614 100.100314,13.6879132 98.7572327,15.0204168 C97.4138365,16.352612 96.7424528,17.9558093 96.7424528,19.8306252 C96.7424528,21.7452127 97.4078616,23.3709164 98.7389937,24.7071196 C100.070126,26.0436312 101.676101,26.7114245 103.556604,26.7114245 C104.61478,26.7114245 105.589937,26.4977676 106.481132,26.0704539 C107.372642,25.6434485 108.17673,25.0018613 108.893396,24.1466172 L108.893396,26.3886269 L110.60283,26.3886269 L110.60283,13.3447673 L108.893396,13.3447673 L108.893396,15.7424722 L108.893396,15.7424722 Z" id="Fill-5" fill="#000105"></path>
            <path d="M131.190566,13.7045618 C130.486164,13.2495004 129.674214,13.0216614 128.753774,13.0216614 C127.767925,13.0216614 126.847799,13.2877305 125.992767,13.8189438 C125.137421,14.3504653 124.424843,15.128016 123.855031,16.1506709 C123.58522,15.3836026 123.266352,14.7941193 122.899057,14.3825293 C122.531447,13.9709392 122.057547,13.6413588 121.477358,13.3934799 C120.896855,13.1456009 120.284277,13.0216614 119.638994,13.0216614 C118.683019,13.0216614 117.772013,13.2735484 116.905975,13.7763974 C116.27673,14.1599315 115.663836,14.7676049 115.06761,15.598801 L115.06761,13.3447673 L113.358176,13.3447673 L113.358176,26.3886269 L115.06761,26.3886269 L115.06761,20.8699286 C115.06761,19.2417585 115.232704,18.0328861 115.563522,17.2430031 C115.89434,16.4531202 116.404717,15.8244819 117.094654,15.3577048 C117.784591,14.8906195 118.525472,14.6572309 119.31761,14.6572309 C120.003459,14.6572309 120.595283,14.8271082 121.093396,15.1662461 C121.591509,15.505384 121.940252,15.956129 122.140566,16.5187896 C122.340566,17.0814502 122.440566,18.1488096 122.440566,19.7208678 L122.440566,26.3886269 L124.15,26.3886269 L124.15,21.2889181 C124.15,19.4218099 124.308805,18.088998 124.626101,17.2910991 C124.943396,16.4928918 125.445912,15.8543877 126.133648,15.3755866 C126.821384,14.8967856 127.580189,14.6572309 128.410377,14.6572309 C129.094025,14.6572309 129.681761,14.8169341 130.174214,15.136032 C130.666667,15.4554382 131.014465,15.8762775 131.21761,16.3991664 C131.421069,16.9217471 131.52327,17.8815073 131.52327,19.2778304 L131.52327,26.3886269 L133.273585,26.3886269 L133.273585,19.2738224 C133.273585,17.6450357 133.102516,16.423831 132.760377,15.6089752 C132.418239,14.7944276 131.894969,14.1596232 131.190566,13.7045618" id="Fill-6" fill="#000105"></path>
            <path d="M147.318868,22.5061148 C146.839937,23.3419355 146.196855,23.9927719 145.389937,24.4583157 C144.58239,24.9238595 143.72044,25.1569398 142.803459,25.1569398 C141.87044,25.1569398 140.983962,24.9260177 140.144025,24.4641736 C139.304088,24.0026377 138.659119,23.3776991 138.209119,22.589666 C137.758491,21.8016329 137.533648,20.9140166 137.533648,19.926817 C137.533648,18.422278 138.038365,17.1643848 139.048742,16.1537539 C140.059119,15.1428147 141.302516,14.637191 142.779245,14.637191 C143.728616,14.637191 144.604717,14.8659549 145.407862,15.323791 C146.211006,15.7816272 146.850314,16.4244476 147.324843,17.2522524 C147.799686,18.0797488 148.037107,18.9556494 148.037107,19.8787211 C148.037107,20.7943934 147.797484,21.670294 147.318868,22.5061148 Z M147.753145,15.0204168 C146.410692,13.6879132 144.795912,13.0216614 142.908491,13.0216614 C141.826415,13.0216614 140.845912,13.2476506 139.967296,13.698704 C139.088679,14.1500657 138.311635,14.8314245 137.636478,15.7424722 L137.636478,13.3447673 L135.927044,13.3447673 L135.927044,31.1538224 L137.636478,31.1538224 L137.636478,24.1339766 C138.352201,24.9892207 139.153774,25.6326577 140.040566,26.0642878 C140.927673,26.4959178 141.899686,26.7114245 142.957547,26.7114245 C144.836792,26.7114245 146.441195,26.0436312 147.771698,24.7071196 C149.101887,23.3709164 149.766981,21.7452127 149.766981,19.8306252 C149.766981,17.9558093 149.095597,16.352612 147.753145,15.0204168 L147.753145,15.0204168 Z" id="Fill-7" fill="#000105"></path>
            <path d="M97.1471698,2.8916129 L98.3625786,2.8916129 C98.8267296,2.8916129 99.1610063,2.93138453 99.3650943,3.01061947 C99.5688679,3.08985441 99.7333333,3.22335141 99.8581761,3.41049386 C99.9823899,3.59825293 100.044969,3.80481873 100.044969,4.03049957 C100.044969,4.26203825 99.9823899,4.47168713 99.8581761,4.65913788 C99.7333333,4.84658864 99.5622642,4.98224379 99.3440252,5.06610334 C99.1257862,5.14996289 98.7814465,5.19189266 98.3110063,5.19189266 L97.1471698,5.17832715 L97.1471698,2.8916129 Z M97.1471698,5.83810448 L97.6380503,5.83810448 C98.4918239,5.83810448 99.0745283,5.80141593 99.3858491,5.72803882 C99.8128931,5.62722238 100.148113,5.43113902 100.390881,5.13917214 C100.633962,4.84751356 100.755346,4.47723665 100.755346,4.02803311 C100.755346,3.58222095 100.630818,3.21163574 100.381761,2.91689409 C100.132075,2.62215244 99.8113208,2.42730231 99.4188679,2.33265201 C99.1443396,2.26544105 98.6147799,2.23183557 97.8295597,2.23183557 L96.4600629,2.23183557 L96.4600629,8.97235512 L97.1471698,8.97235512 L97.1471698,5.83810448 L97.1471698,5.83810448 Z" id="Fill-8" fill="#000105"></path>
            <path d="M105.001887,2.8916129 L106.214465,2.8916129 C106.685535,2.8916129 107.022956,2.93138453 107.225786,3.01092778 C107.428616,3.09016272 107.592138,3.22242649 107.716981,3.40710248 C107.841824,3.59208678 107.904403,3.79741935 107.904403,4.02340851 C107.904403,4.2555638 107.842767,4.46582929 107.719497,4.65358835 C107.596226,4.84165572 107.424528,4.9782358 107.204403,5.06363688 C106.984591,5.14934627 106.644969,5.19189266 106.186164,5.19189266 L105.001887,5.18295176 L105.001887,2.8916129 Z M105.001887,5.84272909 L105.390252,5.84272909 L107.863208,8.97235512 L108.712893,8.97235512 L106.240566,5.84272909 C106.816981,5.83964602 107.268868,5.76688553 107.595912,5.62475592 C107.92327,5.48262632 108.174528,5.27205253 108.350943,4.99395946 C108.52673,4.71555809 108.61478,4.39276049 108.61478,4.02556666 C108.61478,3.58530403 108.487107,3.21441051 108.231447,2.9131944 C107.976101,2.6119783 107.64434,2.41558664 107.235849,2.3237111 C106.96478,2.26235798 106.447799,2.23183557 105.684591,2.23183557 L104.31478,2.23183557 L104.31478,8.97235512 L105.001887,8.97235512 L105.001887,5.84272909 L105.001887,5.84272909 Z" id="Fill-9" fill="#000105"></path>
            <path d="M115.292453,3.66392235 L116.46478,6.10386526 L114.114151,6.10386526 L115.292453,3.66392235 Z M116.76195,6.75439338 L117.843396,8.97235512 L118.58522,8.97235512 L115.379245,2.23183557 L115.210692,2.23183557 L111.962264,8.97235512 L112.728931,8.97235512 L113.8,6.75439338 L116.76195,6.75439338 L116.76195,6.75439338 Z" id="Fill-10" fill="#000105"></path>
            <polyline id="Fill-11" fill="#000105" points="124.044969 1.71850414 125.433019 0.540770768 124.565094 0.540770768 123.708176 1.23754496 122.885849 0.540770768 122.039937 0.540770768 123.395283 1.71850414 124.044969 1.71850414"></polyline>
            <polyline id="Fill-12" fill="#000105" points="125.489308 8.97235512 125.489308 8.31257779 122.76195 8.31257779 125.633962 2.23183557 122.007233 2.23183557 122.007233 2.88236369 124.595912 2.88236369 121.698742 8.97235512 125.489308 8.97235512"></polyline>
            <path d="M131.215723,8.32860976 C131.012893,8.43374251 130.796541,8.48677134 130.565723,8.48677134 C130.027044,8.48677134 129.551887,8.11556951 129.140252,7.37316586 L128.556289,7.71662004 C128.842767,8.22995147 129.155975,8.59591208 129.495597,8.81419355 C129.83522,9.03278333 130.213522,9.14192407 130.631447,9.14192407 C131.173585,9.14192407 131.633962,8.96156437 132.012579,8.6011533 C132.391195,8.24074222 132.580503,7.81589495 132.580503,7.32722809 C132.580503,6.98809021 132.469811,6.65080217 132.248742,6.31474736 C132.027358,5.97869255 131.619182,5.59515844 131.023899,5.16445333 C130.522013,4.80095918 130.226101,4.57651156 130.135849,4.49080217 C129.970755,4.32894091 129.856918,4.17910363 129.794654,4.04190694 C129.73239,3.90440194 129.701258,3.76227234 129.701258,3.61551813 C129.701258,3.37442192 129.789308,3.1712475 129.965409,3.00630317 C130.141195,2.84135884 130.367925,2.75873251 130.645283,2.75873251 C130.860377,2.75873251 131.058805,2.81206965 131.241195,2.91905224 C131.423585,3.02603483 131.644025,3.24770768 131.90283,3.58345418 L132.463522,3.16662289 C132.148742,2.745167 131.850314,2.45566657 131.568553,2.29812161 C131.286478,2.14119326 130.983648,2.06226663 130.659434,2.06226663 C130.354088,2.06226663 130.071069,2.13163574 129.811321,2.27099058 C129.550943,2.4097288 129.349057,2.59995432 129.205975,2.84135884 C129.062579,3.08245504 128.990881,3.35006566 128.990881,3.64326577 C128.990881,4.01292606 129.112579,4.35638025 129.355346,4.67424493 C129.495597,4.86354553 129.852516,5.17061947 130.425786,5.59515844 C130.995912,6.01661433 131.388365,6.37733371 131.603459,6.67669997 C131.759434,6.89343991 131.837107,7.11511276 131.837107,7.34110191 C131.837107,7.53965173 131.784277,7.72741079 131.678302,7.90468741 C131.572327,8.08196403 131.417925,8.22316871 131.215723,8.32860976" id="Fill-13" fill="#000105"></path>
            <polyline id="Fill-14" fill="#000105" points="137.059119 5.83255495 140.072327 8.97235512 140.987736 8.97235512 137.428302 5.25602055 140.730189 2.23183557 139.807233 2.23183557 137.059119 4.76118755 137.059119 2.23183557 136.358176 2.23183557 136.358176 8.97235512 137.059119 8.97235512 137.059119 5.83255495"></polyline>
            <polyline id="Fill-15" fill="#000105" points="147.834591 0.288883814 146.829874 0.288883814 145.810692 1.70031402 146.455975 1.70031402 147.834591 0.288883814"></polyline>
            <g id="Group-19" transform="translate(0.000000, 0.616614)">
                <mask id="mask-2" fill="white">
                    <use xlink:href="#path-1"></use>
                </mask>
                <g id="Clip-17"></g>
                <polyline id="Fill-16" fill="#000105" mask="url(#mask-2)" points="146.189623 8.35574079 146.866981 8.35574079 146.866981 5.13423922 149.044969 1.61522124 148.250629 1.61522124 146.519182 4.39491864 144.760063 1.61522124 143.969497 1.61522124 146.189623 5.13423922 146.189623 8.35574079"></polyline>
                <path d="M34.7830189,7.95247502 C36.7509434,10.8299058 37.791195,14.1876791 37.791195,17.6623009 C37.791195,21.2149244 36.7059748,24.6365173 34.6528302,27.5574194 C34.404717,27.9101228 33.9119497,27.9989152 33.5522013,27.7559692 C33.1924528,27.5127148 33.1018868,27.0299058 33.3496855,26.6768941 C35.2201258,24.0162033 36.208805,20.8989095 36.208805,17.6623009 C36.208805,14.4962946 35.2613208,11.4375792 33.4685535,8.8163517 C33.2254717,8.46087354 33.322327,7.97868113 33.6852201,7.74005138 C34.0481132,7.50172995 34.5396226,7.59668855 34.7830189,7.95247502 Z M30.6386792,25.7902027 C30.2789308,25.5469483 30.1880503,25.0641393 30.4361635,24.7111276 C31.8984277,22.6309792 32.6710692,20.193811 32.6710692,17.6623009 C32.6710692,15.1869027 31.9301887,12.7950557 30.5286164,10.7457379 C30.2852201,10.3899515 30.3820755,9.90806737 30.745283,9.66943762 C31.1081761,9.43080788 31.5996855,9.52576649 31.8430818,9.88186126 C33.4201258,12.1876906 34.2534591,14.8779789 34.2534591,17.6623009 C34.2534591,20.5098259 33.3839623,23.2516015 31.7393082,25.5916529 C31.491195,25.9443563 30.9984277,26.033457 30.6386792,25.7902027 Z M27.5830189,23.7294776 C27.2232704,23.4862232 27.1327044,23.0031059 27.3808176,22.6504025 C28.4169811,21.1770026 28.9647799,19.452024 28.9647799,17.6623009 C28.9647799,15.9111162 28.4399371,14.2185098 27.4477987,12.7669997 C27.2044025,12.4112132 27.3012579,11.9293291 27.6641509,11.6906994 C28.0273585,11.452378 28.5188679,11.5473366 28.7619497,11.903123 C29.9298742,13.6108364 30.5471698,15.6025007 30.5471698,17.6623009 C30.5471698,19.7683471 29.9028302,21.7976249 28.6836478,23.5309278 C28.4355346,23.8839395 27.9427673,23.9727319 27.5830189,23.7294776 Z M23.2949686,0.326805595 C24.2836478,0.689991436 25.2292453,1.21966315 26.1185535,1.77338281 C27.008805,2.32802741 28.0245283,2.99952041 27.6823899,3.81468456 C26.5562893,5.74592064 23.8147799,4.85737939 22.2559748,4.15012275 C20.509434,3.35777334 18.5437107,2.13533543 16.5355346,2.47231516 C14.5132075,2.81176135 13.3927673,5.16013703 12.7827044,6.87956609 C14.9852201,6.26233514 18.2465409,5.86955181 19.5383648,8.23395946 C20.5018868,9.99716814 20.4154088,13.3774479 18.2465409,14.2644476 C15.8540881,15.2411647 14.0959119,13.1067542 12.3311321,12.1069141 C10.7918239,11.235638 7.65849057,9.49771053 6.4245283,11.7159806 C5.46320755,13.4431173 6.5418239,15.3845275 5.63301887,17.0922409 C4.50188679,19.2149358 1.92924528,18.7271938 0,18.4568084 C0.451886792,18.8998458 0.881446541,19.3660063 1.38710692,19.7513902 C2.31163522,20.453714 3.47169811,21.018841 4.67201258,20.811042 C5.70157233,20.6094091 6.39874214,20.1016272 7.14559748,19.4082444 C7.9091195,18.6997545 8.22327044,17.7779161 9.31226415,17.4628261 C10.158805,17.2183386 11.0959119,17.3536854 11.8786164,17.7329032 C13.5716981,18.5548501 15.0836478,20.3621467 14.9484277,22.2912247 C14.8779874,23.2993891 14.1053459,24.0908136 13.3081761,24.6556323 C12.8471698,24.9824379 11.9396226,25.2888952 10.7660377,25.4322581 C12.281761,27.4926749 14.5550314,27.4270054 17.2198113,27.2056409 C19.3371069,27.0292892 21.6738994,25.7479646 23.8198113,26.2492721 C26.2081761,26.807308 25.4427673,29.2096375 23.9933962,30.3611647 C22.3012579,31.7060006 20.0238994,31.9255153 17.9091195,31.7534799 C19.4220126,32.5054411 20.995283,33.1568941 22.6298742,33.6088724 C45.2754717,39.8804568 44.6858491,-4.12175849 23.2949686,0.326805595 L23.2949686,0.326805595 Z" id="Fill-18" fill="#000105" mask="url(#mask-2)"></path>
            </g>
        </g>
    </g>
</svg>