<?xml version="1.0" encoding="UTF-8"?>
<svg width="54px" height="54px" viewBox="0 0 54 54" version="1.1" xmlns="http://www.w3.org/2000/svg" xmlns:xlink="http://www.w3.org/1999/xlink">
    <!-- Generator: Sketch 41.2 (35397) - http://www.bohemiancoding.com/sketch -->
    <title>Group 21</title>
    <desc>Created with Sketch.</desc>
    <defs>
        <rect id="path-1" x="0" y="0" width="54" height="54" rx="5.6"></rect>
        <mask id="mask-2" maskContentUnits="userSpaceOnUse" maskUnits="objectBoundingBox" x="0" y="0" width="54" height="54" fill="white">
            <use xlink:href="#path-1"></use>
        </mask>
    </defs>
    <g id="Welcome" stroke="none" stroke-width="1" fill="none" fill-rule="evenodd">
        <g id="Group-21">
            <path d="M34.906383,13.0419149 C34.6670213,11.8776596 33.6374468,11 32.4029787,11 C32.1214894,11 31.8948936,11.2291489 31.8948936,11.5112766 C31.8948936,11.792766 32.1214894,12.0225532 32.4029787,12.0225532 C33.2487234,12.0225532 33.9368085,12.7080851 33.9368085,13.5531915 C33.9368085,14.3982979 33.2487234,15.0838298 32.4029787,15.0838298 C32.1214894,15.0838298 31.8948936,15.313617 31.8948936,15.5951064 C31.8948936,15.877234 32.1214894,16.106383 32.4029787,16.106383 C33.6374468,16.106383 34.6670213,15.2287234 34.906383,14.0644681 L41.596383,14.0644681 L41.596383,18.6595745 L14.0225532,18.6595745 L14.0225532,14.0644681 L22.7014894,14.0644681 C22.983617,14.0644681 23.212766,13.8346809 23.212766,13.5531915 C23.212766,13.2717021 22.983617,13.0419149 22.7014894,13.0419149 L21.7740426,13.0419149 C21.9859574,12.4489362 22.5470213,12.0225532 23.212766,12.0225532 C24.0578723,12.0225532 24.7434043,12.7080851 24.7434043,13.5531915 C24.7434043,14.3982979 24.0578723,15.0838298 23.212766,15.0838298 C22.9312766,15.0838298 22.7014894,15.313617 22.7014894,15.5951064 C22.7014894,15.877234 22.9312766,16.106383 23.212766,16.106383 C24.6214894,16.106383 25.7659574,14.9619149 25.7659574,13.5531915 C25.7659574,12.1444681 24.6214894,11 23.212766,11 C21.9808511,11 20.9487234,11.8776596 20.7119149,13.0419149 L13,13.0419149 L13,40.1076596 L42.6157447,40.1076596 L42.6157447,13.0419149 L34.906383,13.0419149 Z M14.0225532,39.0851064 L41.596383,39.0851064 L41.596383,19.6821277 L14.0225532,19.6821277 L14.0225532,39.0851064 Z" id="Fill-1" fill="#000000"></path>
            <path d="M26.5112766,12.0225532 C27.356383,12.0225532 28.0419149,12.7080851 28.0419149,13.5531915 C28.0419149,14.3982979 27.356383,15.0838298 26.5112766,15.0838298 C26.2291489,15.0838298 26,15.313617 26,15.5951064 C26,15.877234 26.2291489,16.106383 26.5112766,16.106383 C27.9174468,16.106383 29.0644681,14.9619149 29.0644681,13.5531915 C29.0644681,12.1444681 27.9174468,11 26.5112766,11 C26.2291489,11 26,11.2291489 26,11.5112766 C26,11.792766 26.2291489,12.0225532 26.5112766,12.0225532 Z" id="Fill-2" fill="#000000"></path>
            <path d="M29.5112766,12.0225532 C30.3538298,12.0225532 31.0419149,12.7080851 31.0419149,13.5531915 C31.0419149,14.3982979 30.3538298,15.0838298 29.5112766,15.0838298 C29.2265957,15.0838298 29,15.313617 29,15.5951064 C29,15.877234 29.2265957,16.106383 29.5112766,16.106383 C30.9174468,16.106383 32.0644681,14.9619149 32.0644681,13.5531915 C32.0644681,12.1444681 30.9174468,11 29.5112766,11 C29.2265957,11 29,11.2291489 29,11.5112766 C29,11.792766 29.2265957,12.0225532 29.5112766,12.0225532 Z" id="Fill-3" fill="#000000"></path>
            <path d="M25.0193617,23.5112766 C25.0193617,23.7934043 24.792766,24.0225532 24.5112766,24.0225532 C24.2265957,24.0225532 24,23.7934043 24,23.5112766 C24,23.2297872 24.2265957,23 24.5112766,23 C24.792766,23 25.0193617,23.2297872 25.0193617,23.5112766 Z" id="Fill-4" fill="#000000"></path>
            <path d="M28.0225532,23.5112766 C28.0225532,23.7934043 27.7934043,24.0225532 27.5112766,24.0225532 C27.2297872,24.0225532 27,23.7934043 27,23.5112766 C27,23.2297872 27.2297872,23 27.5112766,23 C27.7934043,23 28.0225532,23.2297872 28.0225532,23.5112766 Z" id="Fill-5" fill="#000000"></path>
            <path d="M32.0225532,23.5112766 C32.0225532,23.7934043 31.792766,24.0225532 31.5112766,24.0225532 C31.2291489,24.0225532 31,23.7934043 31,23.5112766 C31,23.2297872 31.2291489,23 31.5112766,23 C31.792766,23 32.0225532,23.2297872 32.0225532,23.5112766 Z" id="Fill-6" fill="#000000"></path>
            <path d="M35.0193617,23.5112766 C35.0193617,23.7934043 34.792766,24.0225532 34.5080851,24.0225532 C34.2265957,24.0225532 34,23.7934043 34,23.5112766 C34,23.2297872 34.2265957,23 34.5080851,23 C34.792766,23 35.0193617,23.2297872 35.0193617,23.5112766 Z" id="Fill-7" fill="#000000"></path>
            <path d="M39.0225532,23.5112766 C39.0225532,23.7934043 38.792766,24.0225532 38.5112766,24.0225532 C38.2297872,24.0225532 38,23.7934043 38,23.5112766 C38,23.2297872 38.2297872,23 38.5112766,23 C38.792766,23 39.0225532,23.2297872 39.0225532,23.5112766 Z" id="Fill-8" fill="#000000"></path>
            <path d="M18.0193617,27.5112766 C18.0193617,27.792766 17.792766,28.0193617 17.5080851,28.0193617 C17.2265957,28.0193617 17,27.792766 17,27.5112766 C17,27.2265957 17.2265957,27 17.5080851,27 C17.792766,27 18.0193617,27.2265957 18.0193617,27.5112766 Z" id="Fill-9" fill="#000000"></path>
            <path d="M21.0225532,27.5112766 C21.0225532,27.792766 20.792766,28.0193617 20.5112766,28.0193617 C20.2297872,28.0193617 20,27.792766 20,27.5112766 C20,27.2265957 20.2297872,27 20.5112766,27 C20.792766,27 21.0225532,27.2265957 21.0225532,27.5112766 Z" id="Fill-10" fill="#000000"></path>
            <path d="M25.0193617,27.5112766 C25.0193617,27.792766 24.792766,28.0193617 24.5112766,28.0193617 C24.2265957,28.0193617 24,27.792766 24,27.5112766 C24,27.2265957 24.2265957,27 24.5112766,27 C24.792766,27 25.0193617,27.2265957 25.0193617,27.5112766 Z" id="Fill-11" fill="#000000"></path>
            <path d="M28.0225532,27.5112766 C28.0225532,27.792766 27.7934043,28.0193617 27.5112766,28.0193617 C27.2297872,28.0193617 27,27.792766 27,27.5112766 C27,27.2265957 27.2297872,27 27.5112766,27 C27.7934043,27 28.0225532,27.2265957 28.0225532,27.5112766 Z" id="Fill-12" fill="#000000"></path>
            <path d="M32.0225532,27.5112766 C32.0225532,27.792766 31.792766,28.0193617 31.5112766,28.0193617 C31.2291489,28.0193617 31,27.792766 31,27.5112766 C31,27.2265957 31.2291489,27 31.5112766,27 C31.792766,27 32.0225532,27.2265957 32.0225532,27.5112766 Z" id="Fill-13" fill="#000000"></path>
            <path d="M35.0193617,27.5112766 C35.0193617,27.792766 34.792766,28.0193617 34.5080851,28.0193617 C34.2265957,28.0193617 34,27.792766 34,27.5112766 C34,27.2265957 34.2265957,27 34.5080851,27 C34.792766,27 35.0193617,27.2265957 35.0193617,27.5112766 Z" id="Fill-14" fill="#50E3C2"></path>
            <path d="M39.0225532,27.5112766 C39.0225532,27.792766 38.792766,28.0193617 38.5112766,28.0193617 C38.2297872,28.0193617 38,27.792766 38,27.5112766 C38,27.2265957 38.2297872,27 38.5112766,27 C38.792766,27 39.0225532,27.2265957 39.0225532,27.5112766 Z" id="Fill-15" fill="#000000"></path>
            <path d="M18.0193617,30.5112766 C18.0193617,30.7934043 17.792766,31.0225532 17.5080851,31.0225532 C17.2265957,31.0225532 17,30.7934043 17,30.5112766 C17,30.2297872 17.2265957,30 17.5080851,30 C17.792766,30 18.0193617,30.2297872 18.0193617,30.5112766 Z" id="Fill-16" fill="#000000"></path>
            <path d="M21.0225532,30.5112766 C21.0225532,30.7934043 20.792766,31.0225532 20.5112766,31.0225532 C20.2297872,31.0225532 20,30.7934043 20,30.5112766 C20,30.2297872 20.2297872,30 20.5112766,30 C20.792766,30 21.0225532,30.2297872 21.0225532,30.5112766 Z" id="Fill-17" fill="#000000"></path>
            <path d="M25.0193617,30.5112766 C25.0193617,30.7934043 24.792766,31.0225532 24.5112766,31.0225532 C24.2265957,31.0225532 24,30.7934043 24,30.5112766 C24,30.2297872 24.2265957,30 24.5112766,30 C24.792766,30 25.0193617,30.2297872 25.0193617,30.5112766 Z" id="Fill-18" fill="#000000"></path>
            <path d="M28.0225532,31.5112766 C28.0225532,31.7934043 27.7934043,32.0225532 27.5112766,32.0225532 C27.2297872,32.0225532 27,31.7934043 27,31.5112766 C27,31.2297872 27.2297872,31 27.5112766,31 C27.7934043,31 28.0225532,31.2297872 28.0225532,31.5112766 Z" id="Fill-19" fill="#000000"></path>
            <path d="M32.0225532,31.5112766 C32.0225532,31.7934043 31.792766,32.0225532 31.5112766,32.0225532 C31.2291489,32.0225532 31,31.7934043 31,31.5112766 C31,31.2297872 31.2291489,31 31.5112766,31 C31.792766,31 32.0225532,31.2297872 32.0225532,31.5112766 Z" id="Fill-20" fill="#000000"></path>
            <path d="M35.0193617,31.5112766 C35.0193617,31.7934043 34.792766,32.0225532 34.5080851,32.0225532 C34.2265957,32.0225532 34,31.7934043 34,31.5112766 C34,31.2297872 34.2265957,31 34.5080851,31 C34.792766,31 35.0193617,31.2297872 35.0193617,31.5112766 Z" id="Fill-21" fill="#000000"></path>
            <path d="M39.0225532,31.5112766 C39.0225532,31.7934043 38.792766,32.0225532 38.5112766,32.0225532 C38.2297872,32.0225532 38,31.7934043 38,31.5112766 C38,31.2297872 38.2297872,31 38.5112766,31 C38.792766,31 39.0225532,31.2297872 39.0225532,31.5112766 Z" id="Fill-22" fill="#000000"></path>
            <path d="M18.0193617,34.5112766 C18.0193617,34.792766 17.792766,35.0193617 17.5080851,35.0193617 C17.2265957,35.0193617 17,34.792766 17,34.5112766 C17,34.2265957 17.2265957,34 17.5080851,34 C17.792766,34 18.0193617,34.2265957 18.0193617,34.5112766 Z" id="Fill-23" fill="#000000"></path>
            <path d="M21.0225532,34.5112766 C21.0225532,34.792766 20.792766,35.0193617 20.5112766,35.0193617 C20.2297872,35.0193617 20,34.792766 20,34.5112766 C20,34.2265957 20.2297872,34 20.5112766,34 C20.792766,34 21.0225532,34.2265957 21.0225532,34.5112766 Z" id="Fill-24" fill="#000000"></path>
            <path d="M25.0193617,34.5112766 C25.0193617,34.792766 24.792766,35.0193617 24.5112766,35.0193617 C24.2265957,35.0193617 24,34.792766 24,34.5112766 C24,34.2265957 24.2265957,34 24.5112766,34 C24.792766,34 25.0193617,34.2265957 25.0193617,34.5112766 Z" id="Fill-25" fill="#000000"></path>
            <path d="M28.0225532,34.5112766 C28.0225532,34.792766 27.7934043,35.0193617 27.5112766,35.0193617 C27.2297872,35.0193617 27,34.792766 27,34.5112766 C27,34.2265957 27.2297872,34 27.5112766,34 C27.7934043,34 28.0225532,34.2265957 28.0225532,34.5112766 Z" id="Fill-26" fill="#000000"></path>
            <path d="M32.0225532,34.5112766 C32.0225532,34.792766 31.792766,35.0193617 31.5112766,35.0193617 C31.2291489,35.0193617 31,34.792766 31,34.5112766 C31,34.2265957 31.2291489,34 31.5112766,34 C31.792766,34 32.0225532,34.2265957 32.0225532,34.5112766 Z" id="Fill-27" fill="#000000"></path>
            <use id="Rectangle-7" stroke="#000000" mask="url(#mask-2)" stroke-width="1.6" xlink:href="#path-1"></use>
        </g>
    </g>
</svg>