<?xml version="1.0" encoding="UTF-8"?>
<svg width="54px" height="54px" viewBox="0 0 54 54" version="1.1" xmlns="http://www.w3.org/2000/svg" xmlns:xlink="http://www.w3.org/1999/xlink">
    <!-- Generator: Sketch 41.2 (35397) - http://www.bohemiancoding.com/sketch -->
    <title>Group 22</title>
    <desc>Created with Sketch.</desc>
    <defs>
        <rect id="path-1" x="0" y="0" width="54" height="54" rx="5.6"></rect>
        <mask id="mask-2" maskContentUnits="userSpaceOnUse" maskUnits="objectBoundingBox" x="0" y="0" width="54" height="54" fill="white">
            <use xlink:href="#path-1"></use>
        </mask>
    </defs>
    <g id="Welcome" stroke="none" stroke-width="1" fill="none" fill-rule="evenodd">
        <g id="Group-22">
            <path d="M26.9749032,19 C24.7827097,19 23,20.7698182 23,22.9440455 C23,25.1203864 24.7827097,26.8902045 26.9749032,26.8902045 C29.1649677,26.8902045 30.9476774,25.1203864 30.9476774,22.9440455 C30.9476774,20.7698182 29.1649677,19 26.9749032,19 Z M26.9749032,25.7622273 C25.4086452,25.7622273 24.1361935,24.4989773 24.1361935,22.9440455 C24.1361935,21.3912273 25.4086452,20.1258636 26.9749032,20.1258636 C28.5390323,20.1258636 29.8136129,21.3912273 29.8136129,22.9440455 C29.8136129,24.4989773 28.5390323,25.7622273 26.9749032,25.7622273 Z" id="Fill-1" fill="#50E3C2"></path>
            <circle id="Oval" stroke="#50E3C2" cx="27" cy="23" r="3"></circle>
            <path d="M34.5869633,15.1655227 C32.5303181,13.1258636 29.7966407,12 26.8890923,12 C23.9779955,12 21.2450278,13.1258636 19.187673,15.1655227 C15.3845117,18.944 14.9104471,26.0500455 18.1650278,30.3569318 L26.8890923,42.8626136 L35.5961246,30.3738409 C38.8648988,26.0500455 38.3908342,18.944 34.5869633,15.1655227 Z M34.675673,29.7157955 L26.8890923,40.8835455 L19.0854794,29.6988864 C16.1353504,25.7914773 16.5568988,19.3730682 19.9917375,15.9630682 C21.8354794,14.1361818 24.2831568,13.1286818 26.8890923,13.1286818 C29.4921891,13.1286818 31.9398665,14.1361818 33.7836084,15.9630682 C37.2177375,19.3730682 37.6421246,25.7914773 34.675673,29.7157955 Z" id="Fill-3" fill="#000000"></path>
            <use id="Rectangle-7-Copy" stroke="#000000" mask="url(#mask-2)" stroke-width="1.6" xlink:href="#path-1"></use>
        </g>
    </g>
</svg>