<?xml version="1.0" encoding="UTF-8"?>
<svg width="54px" height="54px" viewBox="0 0 54 54" version="1.1" xmlns="http://www.w3.org/2000/svg" xmlns:xlink="http://www.w3.org/1999/xlink">
    <!-- Generator: Sketch 41.2 (35397) - http://www.bohemiancoding.com/sketch -->
    <title>Group 23</title>
    <desc>Created with Sketch.</desc>
    <defs>
        <rect id="path-1" x="0" y="0" width="54" height="54" rx="5.6"></rect>
        <mask id="mask-2" maskContentUnits="userSpaceOnUse" maskUnits="objectBoundingBox" x="0" y="0" width="54" height="54" fill="white">
            <use xlink:href="#path-1"></use>
        </mask>
    </defs>
    <g id="Welcome" stroke="none" stroke-width="1" fill="none" fill-rule="evenodd">
        <g id="Group-23">
            <path d="M35.527027,38.7726753 L35.527027,37.5718667 C35.5050806,37.5733894 35.4834477,37.5749121 35.4611877,37.5749121 C34.999999,37.5749121 34.6262825,37.2134209 34.6262825,36.7675716 C34.6262825,36.3217223 34.999999,35.9602311 35.4611877,35.9602311 C35.4834477,35.9602311 35.5050806,35.9620583 35.527027,35.963581 L35.527027,34.8699711 C35.5050806,34.8714939 35.4834477,34.8730166 35.4611877,34.8730166 C34.999999,34.8730166 34.6262825,34.5118299 34.6262825,34.0656761 C34.6262825,33.6198268 34.999999,33.2583355 35.4611877,33.2583355 C35.4834477,33.2583355 35.5050806,33.2601628 35.527027,33.2616855 L35.527027,32.1680756 C35.5050806,32.1695983 35.4834477,32.171121 35.4611877,32.171121 C34.999999,32.171121 34.6262825,31.8099344 34.6262825,31.3637805 C34.6262825,30.9179312 34.999999,30.55644 35.4611877,30.55644 C35.4834477,30.55644 35.5050806,30.5582673 35.527027,30.55979 L35.527027,29.3589814 C34.5005607,29.3547178 33.5954268,28.8549646 33.0536633,28.094219 C32.7260343,27.7747545 32.5134674,27.4004726 32.5134674,27 L13.9618287,27 C13.6918875,28.3442478 12.4688438,29.3592859 11,29.3592859 L11,30.5603991 C11.0260222,30.5579627 11.0523579,30.55644 11.0790072,30.55644 C11.5398824,30.55644 11.9135989,30.9179312 11.9135989,31.3637805 C11.9135989,31.8099344 11.5398824,32.171121 11.0790072,32.171121 C11.0523579,32.171121 11.0260222,32.1695983 11,32.1674665 L11,33.2622946 C11.0260222,33.2598583 11.0523579,33.2583355 11.0790072,33.2583355 C11.5398824,33.2583355 11.9135989,33.6198268 11.9135989,34.0656761 C11.9135989,34.5118299 11.5398824,34.8730166 11.0790072,34.8730166 C11.0523579,34.8730166 11.0260222,34.8714939 11,34.8693621 L11,35.9641901 C11.0260222,35.9617538 11.0523579,35.9602311 11.0790072,35.9602311 C11.5398824,35.9602311 11.9135989,36.3217223 11.9135989,36.7675716 C11.9135989,37.2134209 11.5398824,37.5749121 11.0790072,37.5749121 C11.0523579,37.5749121 11.0260222,37.5733894 11,37.5712576 L11,38.7723707 C12.4688438,38.7723707 13.6918875,39.7874088 13.9618287,41.1316567 L32.5134674,41.1316567 C32.5134674,40.7311841 32.7260343,40.3565976 33.0536633,40.0374377 C33.5954268,39.2766921 34.5005607,38.7769389 35.527027,38.7726753 Z" id="Stroke-3" stroke="#50E3C2" stroke-width="0.8"></path>
            <polyline id="Path-2" stroke="#000000" stroke-width="0.8" points="23.46738 26.4185777 21 17 41.2027027 17 37.0436125 39.0639344 33.6268687 39.0639344"></polyline>
            <use id="Rectangle-7-Copy-2" stroke="#000000" mask="url(#mask-2)" stroke-width="1.6" xlink:href="#path-1"></use>
        </g>
    </g>
</svg>